# xmcd
#
# Track frame offsets:
#	150
#	19897
#	39545
#	59190
#	73687
#
# Disc length: 1194 seconds
#
# Revision: 1
# Processed by: cddbd v1.5.1PL0 Copyright (c) Steve Scherf et al.
# Submitted via: audiograbber 1.83.01
#
DISCID=4804a805
DTITLE=Mindy McCready - Guys Do It All The Time - CD Single Promo
DYEAR=1996
DGENRE=Country
TTITLE0=Guys Do It All The Time (Dance Mix)
TTITLE1=Guys Do It All The Time (Dance Mix)
TTITLE2=Guys Do It All The Time (Dance Mix)
TTITLE3=Guys Do It All The Time (Album Version)
TTITLE4=Ten Thousand Angels
EXTD=
EXTT0=
EXTT1=
EXTT2=
EXTT3=
EXTT4=
PLAYORDER=
